<svg width="162" height="17" viewBox="0 0 162 17" fill="none" xmlns="http://www.w3.org/2000/svg">
<path d="M0.768506 13.6863C0.640753 13.6863 0.532162 13.648 0.442735 13.5714C0.353307 13.4819 0.308594 13.3669 0.308594 13.2264V0.751293C0.308594 0.610764 0.353307 0.495786 0.442735 0.406358C0.532162 0.316931 0.640753 0.272217 0.768506 0.272217H10.8099C10.9505 0.272217 11.0654 0.316931 11.1549 0.406358C11.2443 0.495786 11.289 0.610764 11.289 0.751293V13.2264C11.289 13.3542 11.2443 13.4628 11.1549 13.5522C11.0654 13.6416 10.9505 13.6863 10.8099 13.6863H9.08526C8.9575 13.6863 8.84891 13.6416 8.75949 13.5522C8.67006 13.4628 8.62535 13.3542 8.62535 13.2264V2.66759H2.97225V13.2264C2.97225 13.3542 2.92754 13.4628 2.83811 13.5522C2.76146 13.6416 2.65287 13.6863 2.51234 13.6863H0.768506Z" fill="white"/>
<path d="M13.4451 13.6863C13.3429 13.6863 13.2471 13.648 13.1577 13.5714C13.081 13.4947 13.0427 13.3989 13.0427 13.2839C13.0427 13.2328 13.0555 13.1753 13.081 13.1114L17.6993 0.751293C17.7377 0.623539 17.8079 0.514948 17.9101 0.425521C18.0251 0.323318 18.1784 0.272217 18.37 0.272217H20.4588C20.6504 0.272217 20.7974 0.323318 20.8996 0.425521C21.0018 0.514948 21.0784 0.623539 21.1295 0.751293L25.7478 13.1114C25.7606 13.1753 25.767 13.2328 25.767 13.2839C25.767 13.3989 25.7286 13.4947 25.652 13.5714C25.5753 13.648 25.4859 13.6863 25.3837 13.6863H23.7165C23.5377 13.6863 23.4035 13.648 23.3141 13.5714C23.2374 13.4819 23.1863 13.3989 23.1608 13.3222L22.2601 10.9843H16.5687L15.6681 13.3222C15.6425 13.3989 15.585 13.4819 15.4956 13.5714C15.4189 13.648 15.2912 13.6863 15.1123 13.6863H13.4451ZM17.2394 8.7806H21.5894L19.4048 2.85923L17.2394 8.7806Z" fill="white"/>
<path d="M28.0159 13.6863C27.8882 13.6863 27.7796 13.6416 27.6902 13.5522C27.6007 13.4628 27.556 13.3542 27.556 13.2264V0.751293C27.556 0.610764 27.6007 0.495786 27.6902 0.406358C27.7796 0.316931 27.8882 0.272217 28.0159 0.272217H33.1516C34.1481 0.272217 35.0168 0.431909 35.7578 0.751293C36.4988 1.0579 37.0736 1.53059 37.4825 2.16936C37.8913 2.79535 38.0957 3.58103 38.0957 4.52641C38.0957 5.48456 37.8913 6.27663 37.4825 6.90262C37.0736 7.51584 36.4988 7.97575 35.7578 8.28236C35.0168 8.58897 34.1481 8.74227 33.1516 8.74227H30.2963V13.2264C30.2963 13.3542 30.2516 13.4628 30.1622 13.5522C30.0855 13.6416 29.9769 13.6863 29.8364 13.6863H28.0159ZM30.258 6.61518H33.0558C33.7968 6.61518 34.3653 6.44271 34.7613 6.09777C35.1573 5.74007 35.3554 5.21628 35.3554 4.52641C35.3554 3.88764 35.1701 3.37663 34.7996 2.99337C34.4291 2.59733 33.8479 2.39931 33.0558 2.39931H30.258V6.61518Z" fill="white"/>
<rect x="44.9062" y="3.7002" width="3.18472" height="3.18472" rx="1.59236" transform="rotate(-90 44.9062 3.7002)" fill="white"/>
<rect x="44.9062" y="8.88867" width="3.18472" height="3.18472" rx="1.59236" transform="rotate(-90 44.9062 8.88867)" fill="white"/>
<rect x="44.9062" y="14.0774" width="3.18472" height="3.18472" rx="1.59236" transform="rotate(-90 44.9062 14.0774)" fill="white"/>
<path d="M55.0446 16.0903C54.8811 16.0903 54.7421 16.033 54.6276 15.9186C54.5295 15.8205 54.4805 15.6897 54.4805 15.5262V11.9945C54.4805 11.831 54.5295 11.7002 54.6276 11.602C54.7421 11.4876 54.8811 11.4304 55.0446 11.4304H55.1672C55.6087 11.414 55.9847 11.1688 56.2954 10.6946C56.606 10.2041 56.8431 9.44379 57.0066 8.41371C57.1701 7.36728 57.2519 6.01019 57.2519 4.34244V1.20315C57.2519 1.03964 57.3009 0.908839 57.399 0.810736C57.5135 0.696283 57.6525 0.639056 57.816 0.639056H65.6397C65.8195 0.639056 65.9585 0.696283 66.0566 0.810736C66.1547 0.908839 66.2038 1.03964 66.2038 1.20315V11.3813H67.3565C67.5363 11.3813 67.6753 11.4385 67.7734 11.553C67.8715 11.6511 67.9206 11.7819 67.9206 11.9454V15.5262C67.9206 15.6897 67.8715 15.8205 67.7734 15.9186C67.6753 16.033 67.5363 16.0903 67.3565 16.0903H66.2038C66.0403 16.0903 65.9013 16.033 65.7868 15.9186C65.6887 15.8205 65.6397 15.6897 65.6397 15.5262V13.3924H56.7614V15.5262C56.7614 15.6897 56.7041 15.8205 56.5897 15.9186C56.4916 16.033 56.3608 16.0903 56.1973 16.0903H55.0446ZM58.0857 11.4304L63.9229 11.3813V2.60111H59.4837V4.61222C59.4837 6.34537 59.3611 7.76786 59.1158 8.87969C58.8706 9.97518 58.5272 10.8254 58.0857 11.4304Z" fill="white"/>
<path d="M75.7102 13.6377C74.4675 13.6377 73.4293 13.4006 72.5954 12.9264C71.7615 12.4523 71.1238 11.7983 70.6824 10.9644C70.2409 10.1142 69.9957 9.14948 69.9466 8.07035C69.9303 7.79239 69.9221 7.44085 69.9221 7.01574C69.9221 6.57428 69.9303 6.22274 69.9466 5.96114C69.9957 4.86565 70.2409 3.90098 70.6824 3.0671C71.1402 2.23323 71.786 1.57921 72.6199 1.10504C73.4538 0.630881 74.4839 0.393799 75.7102 0.393799C76.9364 0.393799 77.9665 0.630881 78.8004 1.10504C79.6343 1.57921 80.2719 2.23323 80.7134 3.0671C81.1712 3.90098 81.4246 4.86565 81.4737 5.96114C81.49 6.22274 81.4982 6.57428 81.4982 7.01574C81.4982 7.44085 81.49 7.79239 81.4737 8.07035C81.4246 9.14948 81.1794 10.1142 80.7379 10.9644C80.2965 11.7983 79.6588 12.4523 78.8249 12.9264C77.991 13.4006 76.9528 13.6377 75.7102 13.6377ZM75.7102 11.7492C76.7239 11.7492 77.5332 11.4304 78.1382 10.7927C78.7432 10.1387 79.0702 9.19035 79.1192 7.94772C79.1356 7.70246 79.1438 7.3918 79.1438 7.01574C79.1438 6.63968 79.1356 6.32902 79.1192 6.08376C79.0702 4.84113 78.7432 3.90098 78.1382 3.26331C77.5332 2.60929 76.7239 2.28228 75.7102 2.28228C74.6964 2.28228 73.8789 2.60929 73.2576 3.26331C72.6526 3.90098 72.3338 4.84113 72.3011 6.08376C72.2847 6.32902 72.2766 6.63968 72.2766 7.01574C72.2766 7.3918 72.2847 7.70246 72.3011 7.94772C72.3338 9.19035 72.6526 10.1387 73.2576 10.7927C73.8789 11.4304 74.6964 11.7492 75.7102 11.7492Z" fill="white"/>
<path d="M89.7197 13.6377C88.5588 13.6377 87.5533 13.417 86.703 12.9755C85.8692 12.5177 85.2233 11.8718 84.7655 11.038C84.3077 10.1877 84.0624 9.174 84.0297 7.99677C84.0134 7.75151 84.0052 7.4245 84.0052 7.01574C84.0052 6.60698 84.0134 6.27997 84.0297 6.03471C84.0624 4.85748 84.3077 3.85192 84.7655 3.01805C85.2233 2.16783 85.8692 1.52198 86.703 1.08052C87.5533 0.622705 88.5588 0.393799 89.7197 0.393799C90.668 0.393799 91.4774 0.524603 92.1477 0.786211C92.8345 1.04782 93.3986 1.383 93.84 1.79176C94.2815 2.20053 94.6085 2.64199 94.821 3.11615C95.05 3.59032 95.1726 4.03995 95.1889 4.46507C95.2053 4.62857 95.1562 4.75938 95.0418 4.85748C94.9273 4.95558 94.7883 5.00463 94.6248 5.00463H93.4476C93.2841 5.00463 93.1615 4.97193 93.0797 4.90653C92.998 4.82478 92.9162 4.69397 92.8345 4.51412C92.5402 3.71295 92.1396 3.14885 91.6327 2.82184C91.1258 2.49483 90.4963 2.33133 89.7442 2.33133C88.7632 2.33133 87.962 2.63381 87.3407 3.23878C86.7357 3.84375 86.4087 4.8166 86.3597 6.15734C86.3433 6.74596 86.3433 7.31822 86.3597 7.87414C86.4087 9.23123 86.7357 10.2123 87.3407 10.8172C87.962 11.4058 88.7632 11.7002 89.7442 11.7002C90.4963 11.7002 91.1258 11.5366 91.6327 11.2096C92.1396 10.8826 92.5402 10.3185 92.8345 9.51736C92.9162 9.33751 92.998 9.20671 93.0797 9.12495C93.1615 9.0432 93.2841 9.00232 93.4476 9.00232H94.6248C94.7883 9.00232 94.9273 9.05955 95.0418 9.174C95.1562 9.27211 95.2053 9.40291 95.1889 9.56641C95.1726 9.90977 95.099 10.2613 94.9682 10.621C94.8374 10.9807 94.6248 11.3486 94.3305 11.7247C94.0526 12.0844 93.701 12.4114 93.2759 12.7057C92.8508 12.9837 92.344 13.2126 91.7553 13.3924C91.1667 13.5559 90.4882 13.6377 89.7197 13.6377Z" fill="white"/>
<path d="M102.001 13.3924C101.838 13.3924 101.699 13.3434 101.584 13.2453C101.486 13.1308 101.437 12.9918 101.437 12.8283V2.60111H97.1696C97.0061 2.60111 96.8671 2.55206 96.7526 2.45396C96.6545 2.33951 96.6055 2.20053 96.6055 2.03702V1.20315C96.6055 1.03964 96.6545 0.908839 96.7526 0.810736C96.8671 0.696283 97.0061 0.639056 97.1696 0.639056H107.961C108.124 0.639056 108.255 0.696283 108.353 0.810736C108.468 0.908839 108.525 1.03964 108.525 1.20315V2.03702C108.525 2.20053 108.468 2.33951 108.353 2.45396C108.255 2.55206 108.124 2.60111 107.961 2.60111H103.693V12.8283C103.693 12.9918 103.644 13.1308 103.546 13.2453C103.448 13.3434 103.317 13.3924 103.154 13.3924H102.001Z" fill="white"/>
<path d="M114.208 13.6377C113.391 13.6377 112.647 13.4742 111.976 13.1472C111.306 12.8202 110.766 12.3787 110.358 11.8228C109.949 11.2669 109.744 10.6374 109.744 9.9343C109.744 8.80612 110.202 7.90684 111.118 7.23647C112.033 6.5661 113.227 6.12464 114.699 5.91208L118.353 5.39704V4.6858C118.353 3.90098 118.124 3.28783 117.666 2.84637C117.225 2.40491 116.497 2.18418 115.483 2.18418C114.764 2.18418 114.175 2.33133 113.718 2.62564C113.26 2.91995 112.941 3.29601 112.761 3.75382C112.663 3.99908 112.491 4.12171 112.246 4.12171H111.142C110.962 4.12171 110.823 4.07266 110.725 3.97455C110.644 3.8601 110.603 3.7293 110.603 3.58214C110.603 3.33688 110.693 3.0344 110.873 2.67469C111.069 2.31498 111.363 1.96344 111.755 1.62008C112.148 1.27672 112.647 0.990591 113.252 0.761684C113.873 0.516427 114.625 0.393799 115.508 0.393799C116.489 0.393799 117.315 0.524603 117.985 0.786211C118.655 1.03147 119.179 1.36665 119.555 1.79176C119.947 2.21688 120.225 2.69922 120.389 3.23878C120.568 3.77835 120.658 4.32609 120.658 4.882V12.8283C120.658 12.9918 120.601 13.1308 120.487 13.2453C120.389 13.3434 120.258 13.3924 120.094 13.3924H118.966C118.786 13.3924 118.647 13.3434 118.549 13.2453C118.451 13.1308 118.402 12.9918 118.402 12.8283V11.7737C118.189 12.068 117.903 12.3623 117.544 12.6567C117.184 12.9346 116.734 13.1717 116.195 13.3679C115.655 13.5478 114.993 13.6377 114.208 13.6377ZM114.723 11.7983C115.393 11.7983 116.007 11.6593 116.563 11.3813C117.118 11.087 117.552 10.6374 117.862 10.0324C118.189 9.42744 118.353 8.66714 118.353 7.75151V7.06479L115.508 7.48173C114.347 7.64523 113.472 7.92319 112.884 8.3156C112.295 8.69166 112.001 9.174 112.001 9.76262C112.001 10.2204 112.132 10.6047 112.393 10.9153C112.671 11.2096 113.014 11.4304 113.423 11.5775C113.848 11.7247 114.282 11.7983 114.723 11.7983Z" fill="white"/>
<path d="M124.748 13.3924C124.585 13.3924 124.446 13.3434 124.331 13.2453C124.233 13.1308 124.184 12.9918 124.184 12.8283V1.20315C124.184 1.03964 124.233 0.908839 124.331 0.810736C124.446 0.696283 124.585 0.639056 124.748 0.639056H129.85C131.386 0.639056 132.539 0.949715 133.308 1.57103C134.092 2.19235 134.485 3.02623 134.485 4.07266C134.485 4.80843 134.346 5.36434 134.068 5.7404C133.79 6.11647 133.398 6.4353 132.891 6.69691C133.512 6.95851 133.978 7.38363 134.289 7.97224C134.616 8.54451 134.779 9.1413 134.779 9.76262C134.779 10.9399 134.362 11.8391 133.528 12.4604C132.711 13.0818 131.55 13.3924 130.046 13.3924H124.748ZM126.44 11.602H129.85C130.634 11.602 131.264 11.4549 131.738 11.1606C132.229 10.8499 132.474 10.3839 132.474 9.76262C132.474 9.1086 132.253 8.63444 131.812 8.34013C131.37 8.02947 130.716 7.87414 129.85 7.87414H126.44V11.602ZM126.44 6.05924H129.702C130.487 6.05924 131.108 5.88756 131.566 5.5442C132.04 5.20084 132.278 4.7185 132.278 4.09718C132.278 3.45951 132.04 3.02623 131.566 2.79732C131.108 2.55206 130.487 2.42943 129.702 2.42943H126.44V6.05924Z" fill="white"/>
<path d="M138.496 13.3924C138.332 13.3924 138.193 13.3434 138.079 13.2453C137.981 13.1308 137.932 12.9918 137.932 12.8283V1.20315C137.932 1.03964 137.981 0.908839 138.079 0.810736C138.193 0.696283 138.332 0.639056 138.496 0.639056H139.649C139.812 0.639056 139.943 0.696283 140.041 0.810736C140.156 0.908839 140.213 1.03964 140.213 1.20315V5.91208H142.445L145.756 1.00694C145.837 0.892489 145.927 0.802561 146.025 0.737159C146.123 0.671757 146.254 0.639056 146.418 0.639056H147.693C147.84 0.639056 147.963 0.671757 148.061 0.737159C148.159 0.802561 148.208 0.900664 148.208 1.03147C148.208 1.06417 148.192 1.11322 148.159 1.17862C148.143 1.22767 148.118 1.27672 148.086 1.32578L144.407 6.74596L148.576 12.6812C148.658 12.7793 148.699 12.8856 148.699 13C148.699 13.1308 148.65 13.2289 148.552 13.2943C148.47 13.3597 148.355 13.3924 148.208 13.3924H146.712C146.565 13.3924 146.442 13.3597 146.344 13.2943C146.246 13.2289 146.156 13.139 146.074 13.0245L142.469 7.89867H140.213V12.8283C140.213 12.9918 140.156 13.1308 140.041 13.2453C139.943 13.3434 139.812 13.3924 139.649 13.3924H138.496Z" fill="white"/>
<path d="M154.637 13.6377C153.82 13.6377 153.076 13.4742 152.405 13.1472C151.735 12.8202 151.195 12.3787 150.787 11.8228C150.378 11.2669 150.173 10.6374 150.173 9.9343C150.173 8.80612 150.631 7.90684 151.547 7.23647C152.463 6.5661 153.656 6.12464 155.128 5.91208L158.782 5.39704V4.6858C158.782 3.90098 158.553 3.28783 158.095 2.84637C157.654 2.40491 156.926 2.18418 155.912 2.18418C155.193 2.18418 154.604 2.33133 154.147 2.62564C153.689 2.91995 153.37 3.29601 153.19 3.75382C153.092 3.99908 152.92 4.12171 152.675 4.12171H151.571C151.392 4.12171 151.253 4.07266 151.154 3.97455C151.073 3.8601 151.032 3.7293 151.032 3.58214C151.032 3.33688 151.122 3.0344 151.302 2.67469C151.498 2.31498 151.792 1.96344 152.185 1.62008C152.577 1.27672 153.076 0.990591 153.681 0.761684C154.302 0.516427 155.054 0.393799 155.937 0.393799C156.918 0.393799 157.744 0.524603 158.414 0.786211C159.084 1.03147 159.608 1.36665 159.984 1.79176C160.376 2.21688 160.654 2.69922 160.818 3.23878C160.997 3.77835 161.087 4.32609 161.087 4.882V12.8283C161.087 12.9918 161.03 13.1308 160.916 13.2453C160.818 13.3434 160.687 13.3924 160.523 13.3924H159.395C159.215 13.3924 159.076 13.3434 158.978 13.2453C158.88 13.1308 158.831 12.9918 158.831 12.8283V11.7737C158.618 12.068 158.332 12.3623 157.973 12.6567C157.613 12.9346 157.163 13.1717 156.624 13.3679C156.084 13.5478 155.422 13.6377 154.637 13.6377ZM155.152 11.7983C155.823 11.7983 156.436 11.6593 156.992 11.3813C157.548 11.087 157.981 10.6374 158.291 10.0324C158.618 9.42744 158.782 8.66714 158.782 7.75151V7.06479L155.937 7.48173C154.776 7.64523 153.901 7.92319 153.313 8.3156C152.724 8.69166 152.43 9.174 152.43 9.76262C152.43 10.2204 152.561 10.6047 152.822 10.9153C153.1 11.2096 153.444 11.4304 153.852 11.5775C154.277 11.7247 154.711 11.7983 155.152 11.7983Z" fill="white"/>
</svg>
